<svg xmlns="http://www.w3.org/2000/svg" viewBox="0 0 24 24" width="24" height="24" fill="currentColor">
  <path d="M3.609 1.814L13.792 12 3.609 22.186c-.181-.087-.301-.259-.301-.46V2.274c0-.201.12-.373.301-.46zm10.89 10.893l2.302 2.302-10.937 6.333 8.635-8.635zm2.306-2.314l-3.078 1.786-8.639-8.639L13.109 2.28l3.696 2.144c.38.222.601.632.601 1.074s-.221.852-.601 1.074l-3.001 1.741 3.001 1.741c.38.222.601.632.601 1.074s-.221.852-.601 1.074l-3.001 1.741 3.001 1.741c.38.222.601.632.601 1.074s-.221.852-.601 1.074zM4.195 1.089L15.891 7.88l-2.235 2.235L4.195 1.089zm0 21.822L13.656 13.9l2.235 2.235-11.696 6.776z"/>
</svg> 